<svg width="24" height="24" viewBox="0 0 24 24" fill="none" xmlns="http://www.w3.org/2000/svg">
<path d="M19.8169 6.28277H3.63579C3.28645 6.28277 3 5.99732 3 5.64139C3 5.28545 3.28296 5 3.63579 5H19.8134C20.1628 5 20.4492 5.28545 20.4492 5.64139C20.4492 5.99732 20.1663 6.28277 19.8134 6.28277H19.8169Z" fill="#FAFAFA"/>
<path d="M19.8169 12.8331H3.63579C3.28645 12.8331 3 12.5476 3 12.1917C3 11.8358 3.28296 11.5503 3.63579 11.5503H19.8134C20.1628 11.5503 20.4492 11.8358 20.4492 12.1917C20.4492 12.5476 20.1663 12.8331 19.8134 12.8331H19.8169Z" fill="#FAFAFA"/>
<path d="M19.8169 19.3834H3.63579C3.28645 19.3834 3 19.098 3 18.742C3 18.3861 3.28296 18.1006 3.63579 18.1006H19.8134C20.1628 18.1006 20.4492 18.3861 20.4492 18.742C20.4492 19.098 20.1663 19.3834 19.8134 19.3834H19.8169Z" fill="#FAFAFA"/>
</svg>
